<svg id="visual" viewBox="0 0 900 600" width="900" height="600" xmlns="http://www.w3.org/2000/svg" xmlns:xlink="http://www.w3.org/1999/xlink" version="1.1"><g transform="translate(500.2373891646196 256.03556354588545)"><path d="M67.4 -98.5C107.1 -93.8 172.6 -115.6 187.4 -103.6C202.1 -91.7 166.1 -45.8 161.4 -2.7C156.8 40.5 183.6 81 193.2 135.1C202.8 189.3 195.1 257 160.1 262.4C125 267.8 62.5 210.9 3.3 205.3C-56 199.7 -112 245.3 -112 219.7C-112 194 -56 97 -89 48.5C-122 0 -244 0 -282.7 -22.3C-321.4 -44.7 -276.7 -89.3 -233.5 -120.1C-190.2 -150.8 -148.4 -167.6 -109.7 -173C-71 -178.3 -35.5 -172.2 -10.8 -153.4C13.8 -134.6 27.7 -103.3 67.4 -98.5" fill="#27bbc1"></path></g></svg>