<svg id="visual" viewBox="0 0 900 600" width="900" height="600" xmlns="http://www.w3.org/2000/svg" xmlns:xlink="http://www.w3.org/1999/xlink" version="1.1"><g transform="translate(419.5919098635898 346.4461440853622)"><path d="M4.6 -57.8C9.2 -5.3 18.5 -10.7 81 -10.7C143.5 -10.7 259.2 -5.3 291 18.3C322.7 42 270.5 84 222.9 109.8C175.3 135.7 132.4 145.3 96 137.2C59.7 129 29.8 103 -7.2 115.4C-44.2 127.8 -88.3 178.7 -137.8 194.4C-187.3 210.2 -242.2 190.8 -239.8 152.6C-237.4 114.3 -177.7 57.2 -155.3 12.9C-132.9 -31.3 -147.9 -62.7 -154.5 -108.3C-161.2 -153.9 -159.6 -213.8 -132.5 -253.3C-105.3 -292.8 -52.7 -311.9 -26.3 -266.3C0 -220.7 0 -110.3 4.6 -57.8" fill="#27bbc1"></path></g></svg>