<svg id="visual" viewBox="0 0 900 600" width="900" height="600" xmlns="http://www.w3.org/2000/svg" xmlns:xlink="http://www.w3.org/1999/xlink" version="1.1"><rect x="0" y="0" width="900" height="600" fill="#fff"></rect><g transform="translate(461.70157746270513 242.59569518969192)"><path d="M52 -44.5C103.9 -60 207.8 -120 242.2 -120C276.5 -120 241.3 -60 239.2 -1.2C237.2 57.7 268.4 115.3 250.4 143.6C232.4 171.9 165.2 170.8 115.3 179.3C65.3 187.8 32.7 205.9 -14.9 231.8C-62.5 257.6 -125 291.2 -144.6 265.2C-164.3 239.2 -141 153.6 -171.6 99.5C-202.2 45.3 -286.6 22.7 -280.2 3.7C-273.9 -15.3 -176.8 -30.7 -134.7 -64.9C-92.6 -99.1 -105.6 -152.2 -92.3 -159C-79 -165.8 -39.5 -126.4 -19.7 -92.2C0 -58 0 -29 52 -44.5" fill="#27bbc1"></path></g></svg>