<svg width="510" height="37" viewBox="0 0 510 37" fill="none" xmlns="http://www.w3.org/2000/svg">
<path d="M0 1.21931L3.71875 3.57984C7.4375 5.94037 14.875 10.6614 22.2062 8.83513C29.5906 7.02124 36.8156 -1.35243 44.2 0.188127C51.5312 1.71626 58.9688 13.1462 66.4062 17.7058C73.8438 22.2529 81.2812 19.9421 88.7188 19.0103C96.1562 18.0785 103.594 18.5257 110.925 16.5628C118.309 14.5998 125.534 10.2018 132.919 12.935C140.25 15.6682 147.688 25.5328 155.125 30.5769C162.562 35.6334 170 35.8819 177.438 35.8197C184.875 35.7576 192.312 35.3849 199.644 29.3966C207.028 23.4207 214.253 11.8169 221.638 6.43732C228.969 1.0578 236.406 1.87777 243.844 2.48654C251.281 3.08289 258.719 3.4556 266.156 5.84098C273.594 8.21394 281.031 12.612 288.362 11.1584C295.747 9.7048 302.972 2.42442 310.356 5.5925C317.688 8.76059 325.125 22.3771 332.562 26.4397C340 30.5023 347.438 24.9861 354.875 18.2773C362.312 11.5684 369.75 3.6668 377.081 3.24439C384.466 2.83441 391.691 9.91601 399.075 14.724C406.406 19.5196 413.844 22.0541 421.281 23.2716C428.719 24.4892 436.156 24.4146 443.594 20.1036C451.031 15.7925 458.469 7.26972 465.8 8.89725C473.184 10.5372 480.409 22.3399 487.794 25.6073C495.125 28.8872 502.562 23.6195 506.281 20.9981L510 18.3642V37H506.281C502.562 37 495.125 37 487.794 37C480.409 37 473.184 37 465.8 37C458.469 37 451.031 37 443.594 37C436.156 37 428.719 37 421.281 37C413.844 37 406.406 37 399.075 37C391.691 37 384.466 37 377.081 37C369.75 37 362.312 37 354.875 37C347.438 37 340 37 332.562 37C325.125 37 317.688 37 310.356 37C302.972 37 295.747 37 288.362 37C281.031 37 273.594 37 266.156 37C258.719 37 251.281 37 243.844 37C236.406 37 228.969 37 221.638 37C214.253 37 207.028 37 199.644 37C192.312 37 184.875 37 177.438 37C170 37 162.562 37 155.125 37C147.688 37 140.25 37 132.919 37C125.534 37 118.309 37 110.925 37C103.594 37 96.1562 37 88.7188 37C81.2812 37 73.8438 37 66.4062 37C58.9688 37 51.5312 37 44.2 37C36.8156 37 29.5906 37 22.2062 37C14.875 37 7.4375 37 3.71875 37H0V1.21931Z" fill="#1D1D1D"/>
</svg>
