<svg width="1434" height="320" viewBox="0 0 1434 320" fill="none" xmlns="http://www.w3.org/2000/svg">
<g clip-path="url(#clip0_56_15)">
<path d="M-6 272L5.52 264.8C16.88 257.6 39.92 243.2 62.8 236.8C85.68 230.4 108.72 232 131.6 216C154.48 200 177.52 166.4 200.08 149.6C222.8 132.8 245.2 132.8 267.92 142.4C290.48 152 313.52 171.2 336.4 194.72C359.28 218.08 382.32 245.92 405.2 253.12C428.08 260.32 451.12 246.88 474 234.08C496.88 221.28 519.92 209.12 542.8 215.2C565.68 221.28 588.72 245.92 611.6 260.48C634.48 275.2 657.52 280 680.08 278.08C702.8 276.32 725.2 267.68 747.92 256.8C770.48 245.92 793.52 232.48 816.4 221.92C839.28 211.2 862.32 203.2 885.2 215.2C908.08 227.2 931.12 259.2 954 244.48C976.88 229.92 999.92 168.48 1022.8 150.4C1045.68 132.32 1068.72 157.28 1091.6 183.2C1114.48 209.12 1137.52 235.68 1160.08 252.8C1182.8 269.92 1205.2 277.28 1227.92 272.8C1250.48 268.32 1273.52 251.68 1296.4 238.72C1319.28 225.6 1342.32 216 1365.2 208C1388.08 200 1411.12 193.6 1422.48 190.4L1434 187.2V-1.60013H1422.48C1411.12 -1.60013 1388.08 -1.60013 1365.2 -1.60013C1342.32 -1.60013 1319.28 -1.60013 1296.4 -1.60013C1273.52 -1.60013 1250.48 -1.60013 1227.92 -1.60013C1205.2 -1.60013 1182.8 -1.60013 1160.08 -1.60013C1137.52 -1.60013 1114.48 -1.60013 1091.6 -1.60013C1068.72 -1.60013 1045.68 -1.60013 1022.8 -1.60013C999.92 -1.60013 976.88 -1.60013 954 -1.60013C931.12 -1.60013 908.08 -1.60013 885.2 -1.60013C862.32 -1.60013 839.28 -1.60013 816.4 -1.60013C793.52 -1.60013 770.48 -1.60013 747.92 -1.60013C725.2 -1.60013 702.8 -1.60013 680.08 -1.60013C657.52 -1.60013 634.48 -1.60013 611.6 -1.60013C588.72 -1.60013 565.68 -1.60013 542.8 -1.60013C519.92 -1.60013 496.88 -1.60013 474 -1.60013C451.12 -1.60013 428.08 -1.60013 405.2 -1.60013C382.32 -1.60013 359.28 -1.60013 336.4 -1.60013C313.52 -1.60013 290.48 -1.60013 267.92 -1.60013C245.2 -1.60013 222.8 -1.60013 200.08 -1.60013C177.52 -1.60013 154.48 -1.60013 131.6 -1.60013C108.72 -1.60013 85.68 -1.60013 62.8 -1.60013C39.92 -1.60013 16.88 -1.60013 5.52 -1.60013H-6V272Z" fill="#C0C0C0"/>
<path d="M-6 188.8L5.52 189.6C16.88 190.4 39.92 192 62.8 181.28C85.68 170.72 108.72 147.68 131.6 144.8C154.48 141.92 177.52 158.88 200.08 156.48C222.8 154.08 245.2 132.32 267.92 124C290.48 115.68 313.52 121.12 336.4 123.2C359.28 125.28 382.32 124.32 405.2 125.92C428.08 127.52 451.12 131.68 474 125.12C496.88 118.4 519.92 100.8 542.8 95.2C565.68 89.6 588.72 96 611.6 93.92C634.48 91.68 657.52 81.12 680.08 87.2C702.8 93.28 725.2 116.32 747.92 115.68C770.48 115.2 793.52 91.2 816.4 88.32C839.28 85.28 862.32 103.52 885.2 108C908.08 112.48 931.12 103.52 954 118.72C976.88 133.92 999.92 173.28 1022.8 182.08C1045.68 190.88 1068.72 169.12 1091.6 150.4C1114.48 131.68 1137.52 116.32 1160.08 118.4C1182.8 120.48 1205.2 140.32 1227.92 135.52C1250.48 130.72 1273.52 101.28 1296.4 102.72C1319.28 104 1342.32 136 1365.2 141.28C1388.08 146.72 1411.12 125.28 1422.48 114.72L1434 104V-1.59999H1422.48C1411.12 -1.59999 1388.08 -1.59999 1365.2 -1.59999C1342.32 -1.59999 1319.28 -1.59999 1296.4 -1.59999C1273.52 -1.59999 1250.48 -1.59999 1227.92 -1.59999C1205.2 -1.59999 1182.8 -1.59999 1160.08 -1.59999C1137.52 -1.59999 1114.48 -1.59999 1091.6 -1.59999C1068.72 -1.59999 1045.68 -1.59999 1022.8 -1.59999C999.92 -1.59999 976.88 -1.59999 954 -1.59999C931.12 -1.59999 908.08 -1.59999 885.2 -1.59999C862.32 -1.59999 839.28 -1.59999 816.4 -1.59999C793.52 -1.59999 770.48 -1.59999 747.92 -1.59999C725.2 -1.59999 702.8 -1.59999 680.08 -1.59999C657.52 -1.59999 634.48 -1.59999 611.6 -1.59999C588.72 -1.59999 565.68 -1.59999 542.8 -1.59999C519.92 -1.59999 496.88 -1.59999 474 -1.59999C451.12 -1.59999 428.08 -1.59999 405.2 -1.59999C382.32 -1.59999 359.28 -1.59999 336.4 -1.59999C313.52 -1.59999 290.48 -1.59999 267.92 -1.59999C245.2 -1.59999 222.8 -1.59999 200.08 -1.59999C177.52 -1.59999 154.48 -1.59999 131.6 -1.59999C108.72 -1.59999 85.68 -1.59999 62.8 -1.59999C39.92 -1.59999 16.88 -1.59999 5.52 -1.59999H-6V188.8Z" fill="#DFDFDF"/>
<path d="M-6 89.6001L5.52 95.6801C16.88 101.92 39.92 114.08 62.8 104.8C85.68 95.5201 108.72 64.4801 131.6 66.7201C154.48 68.8001 177.52 104 200.08 105.6C222.8 107.2 245.2 75.2001 267.92 57.2801C290.48 39.5201 313.52 35.6801 336.4 47.5201C359.28 59.2001 382.32 86.4001 405.2 95.6801C428.08 105.12 451.12 96.4801 474 97.1201C496.88 97.6001 519.92 107.2 542.8 116.48C565.68 125.92 588.72 134.88 611.6 122.08C634.48 109.28 657.52 74.7201 680.08 69.1201C702.8 63.5201 725.2 86.8801 747.92 87.2001C770.48 87.5201 793.52 64.4801 816.4 63.5201C839.28 62.4001 862.32 83.2001 885.2 89.1201C908.08 94.8801 931.12 85.9201 954 87.2001C976.88 88.4801 999.92 100.32 1022.8 98.4001C1045.68 96.4801 1068.72 81.1201 1091.6 66.0801C1114.48 51.2001 1137.52 36.8001 1160.08 49.1201C1182.8 61.2801 1205.2 100.32 1227.92 109.12C1250.48 117.92 1273.52 96.4801 1296.4 90.0801C1319.28 83.6801 1342.32 92.3201 1365.2 98.0801C1388.08 104 1411.12 107.2 1422.48 108.8L1434 110.4V-1.59994H1422.48C1411.12 -1.59994 1388.08 -1.59994 1365.2 -1.59994C1342.32 -1.59994 1319.28 -1.59994 1296.4 -1.59994C1273.52 -1.59994 1250.48 -1.59994 1227.92 -1.59994C1205.2 -1.59994 1182.8 -1.59994 1160.08 -1.59994C1137.52 -1.59994 1114.48 -1.59994 1091.6 -1.59994C1068.72 -1.59994 1045.68 -1.59994 1022.8 -1.59994C999.92 -1.59994 976.88 -1.59994 954 -1.59994C931.12 -1.59994 908.08 -1.59994 885.2 -1.59994C862.32 -1.59994 839.28 -1.59994 816.4 -1.59994C793.52 -1.59994 770.48 -1.59994 747.92 -1.59994C725.2 -1.59994 702.8 -1.59994 680.08 -1.59994C657.52 -1.59994 634.48 -1.59994 611.6 -1.59994C588.72 -1.59994 565.68 -1.59994 542.8 -1.59994C519.92 -1.59994 496.88 -1.59994 474 -1.59994C451.12 -1.59994 428.08 -1.59994 405.2 -1.59994C382.32 -1.59994 359.28 -1.59994 336.4 -1.59994C313.52 -1.59994 290.48 -1.59994 267.92 -1.59994C245.2 -1.59994 222.8 -1.59994 200.08 -1.59994C177.52 -1.59994 154.48 -1.59994 131.6 -1.59994C108.72 -1.59994 85.68 -1.59994 62.8 -1.59994C39.92 -1.59994 16.88 -1.59994 5.52 -1.59994H-6V89.6001Z" fill="white"/>
</g>
<defs>
<clipPath id="clip0_56_15">
<rect width="1440" height="320" fill="white" transform="matrix(1 0 0 -1 -6 320)"/>
</clipPath>
</defs>
</svg>
