<svg width="1440" height="320" viewBox="0 0 1440 320" fill="none" xmlns="http://www.w3.org/2000/svg">
<g clip-path="url(#clip0_56_15)">
<path d="M0 4.88245L11.52 12.0824C22.88 19.2824 45.92 33.6824 68.8 40.0824C91.68 46.4824 114.72 44.8824 137.6 60.8824C160.48 76.8824 183.52 110.482 206.08 127.282C228.8 144.082 251.2 144.082 273.92 134.482C296.48 124.882 319.52 105.682 342.4 82.1625C365.28 58.8025 388.32 30.9624 411.2 23.7624C434.08 16.5624 457.12 30.0024 480 42.8024C502.88 55.6024 525.92 67.7624 548.8 61.6824C571.68 55.6024 594.72 30.9624 617.6 16.4024C640.48 1.68245 663.52 -3.11755 686.08 -1.19755C708.8 0.562448 731.2 9.20245 753.92 20.0824C776.48 30.9624 799.52 44.4024 822.4 54.9624C845.28 65.6824 868.32 73.6824 891.2 61.6824C914.08 49.6824 937.12 17.6824 960 32.4024C982.88 46.9624 1005.92 108.402 1028.8 126.482C1051.68 144.562 1074.72 119.602 1097.6 93.6824C1120.48 67.7624 1143.52 41.2024 1166.08 24.0824C1188.8 6.96245 1211.2 -0.397554 1233.92 4.08245C1256.48 8.56245 1279.52 25.2024 1302.4 38.1624C1325.28 51.2824 1348.32 60.8824 1371.2 68.8824C1394.08 76.8824 1417.12 83.2824 1428.48 86.4824L1440 89.6824V278.482H1428.48C1417.12 278.482 1394.08 278.482 1371.2 278.482C1348.32 278.482 1325.28 278.482 1302.4 278.482C1279.52 278.482 1256.48 278.482 1233.92 278.482C1211.2 278.482 1188.8 278.482 1166.08 278.482C1143.52 278.482 1120.48 278.482 1097.6 278.482C1074.72 278.482 1051.68 278.482 1028.8 278.482C1005.92 278.482 982.88 278.482 960 278.482C937.12 278.482 914.08 278.482 891.2 278.482C868.32 278.482 845.28 278.482 822.4 278.482C799.52 278.482 776.48 278.482 753.92 278.482C731.2 278.482 708.8 278.482 686.08 278.482C663.52 278.482 640.48 278.482 617.6 278.482C594.72 278.482 571.68 278.482 548.8 278.482C525.92 278.482 502.88 278.482 480 278.482C457.12 278.482 434.08 278.482 411.2 278.482C388.32 278.482 365.28 278.482 342.4 278.482C319.52 278.482 296.48 278.482 273.92 278.482C251.2 278.482 228.8 278.482 206.08 278.482C183.52 278.482 160.48 278.482 137.6 278.482C114.72 278.482 91.68 278.482 68.8 278.482C45.92 278.482 22.88 278.482 11.52 278.482H0V4.88245Z" fill="#C0C0C0"/>
<path d="M0 188.8L11.52 189.6C22.88 190.4 45.92 192 68.8 181.28C91.68 170.72 114.72 147.68 137.6 144.8C160.48 141.92 183.52 158.88 206.08 156.48C228.8 154.08 251.2 132.32 273.92 124C296.48 115.68 319.52 121.12 342.4 123.2C365.28 125.28 388.32 124.32 411.2 125.92C434.08 127.52 457.12 131.68 480 125.12C502.88 118.4 525.92 100.8 548.8 95.2C571.68 89.6 594.72 96 617.6 93.92C640.48 91.68 663.52 81.12 686.08 87.2C708.8 93.28 731.2 116.32 753.92 115.68C776.48 115.2 799.52 91.2 822.4 88.32C845.28 85.28 868.32 103.52 891.2 108C914.08 112.48 937.12 103.52 960 118.72C982.88 133.92 1005.92 173.28 1028.8 182.08C1051.68 190.88 1074.72 169.12 1097.6 150.4C1120.48 131.68 1143.52 116.32 1166.08 118.4C1188.8 120.48 1211.2 140.32 1233.92 135.52C1256.48 130.72 1279.52 101.28 1302.4 102.72C1325.28 104 1348.32 136 1371.2 141.28C1394.08 146.72 1417.12 125.28 1428.48 114.72L1440 104V-1.59999H1428.48C1417.12 -1.59999 1394.08 -1.59999 1371.2 -1.59999C1348.32 -1.59999 1325.28 -1.59999 1302.4 -1.59999C1279.52 -1.59999 1256.48 -1.59999 1233.92 -1.59999C1211.2 -1.59999 1188.8 -1.59999 1166.08 -1.59999C1143.52 -1.59999 1120.48 -1.59999 1097.6 -1.59999C1074.72 -1.59999 1051.68 -1.59999 1028.8 -1.59999C1005.92 -1.59999 982.88 -1.59999 960 -1.59999C937.12 -1.59999 914.08 -1.59999 891.2 -1.59999C868.32 -1.59999 845.28 -1.59999 822.4 -1.59999C799.52 -1.59999 776.48 -1.59999 753.92 -1.59999C731.2 -1.59999 708.8 -1.59999 686.08 -1.59999C663.52 -1.59999 640.48 -1.59999 617.6 -1.59999C594.72 -1.59999 571.68 -1.59999 548.8 -1.59999C525.92 -1.59999 502.88 -1.59999 480 -1.59999C457.12 -1.59999 434.08 -1.59999 411.2 -1.59999C388.32 -1.59999 365.28 -1.59999 342.4 -1.59999C319.52 -1.59999 296.48 -1.59999 273.92 -1.59999C251.2 -1.59999 228.8 -1.59999 206.08 -1.59999C183.52 -1.59999 160.48 -1.59999 137.6 -1.59999C114.72 -1.59999 91.68 -1.59999 68.8 -1.59999C45.92 -1.59999 22.88 -1.59999 11.52 -1.59999H0V188.8Z" fill="#DFDFDF"/>
<path d="M0 89.6001L11.52 95.6801C22.88 101.92 45.92 114.08 68.8 104.8C91.68 95.5201 114.72 64.4801 137.6 66.7201C160.48 68.8001 183.52 104 206.08 105.6C228.8 107.2 251.2 75.2001 273.92 57.2801C296.48 39.5201 319.52 35.6801 342.4 47.5201C365.28 59.2001 388.32 86.4001 411.2 95.6801C434.08 105.12 457.12 96.4801 480 97.1201C502.88 97.6001 525.92 107.2 548.8 116.48C571.68 125.92 594.72 134.88 617.6 122.08C640.48 109.28 663.52 74.7201 686.08 69.1201C708.8 63.5201 731.2 86.8801 753.92 87.2001C776.48 87.5201 799.52 64.4801 822.4 63.5201C845.28 62.4001 868.32 83.2001 891.2 89.1201C914.08 94.8801 937.12 85.9201 960 87.2001C982.88 88.4801 1005.92 100.32 1028.8 98.4001C1051.68 96.4801 1074.72 81.1201 1097.6 66.0801C1120.48 51.2001 1143.52 36.8001 1166.08 49.1201C1188.8 61.2801 1211.2 100.32 1233.92 109.12C1256.48 117.92 1279.52 96.4801 1302.4 90.0801C1325.28 83.6801 1348.32 92.3201 1371.2 98.0801C1394.08 104 1417.12 107.2 1428.48 108.8L1440 110.4V-1.59994H1428.48C1417.12 -1.59994 1394.08 -1.59994 1371.2 -1.59994C1348.32 -1.59994 1325.28 -1.59994 1302.4 -1.59994C1279.52 -1.59994 1256.48 -1.59994 1233.92 -1.59994C1211.2 -1.59994 1188.8 -1.59994 1166.08 -1.59994C1143.52 -1.59994 1120.48 -1.59994 1097.6 -1.59994C1074.72 -1.59994 1051.68 -1.59994 1028.8 -1.59994C1005.92 -1.59994 982.88 -1.59994 960 -1.59994C937.12 -1.59994 914.08 -1.59994 891.2 -1.59994C868.32 -1.59994 845.28 -1.59994 822.4 -1.59994C799.52 -1.59994 776.48 -1.59994 753.92 -1.59994C731.2 -1.59994 708.8 -1.59994 686.08 -1.59994C663.52 -1.59994 640.48 -1.59994 617.6 -1.59994C594.72 -1.59994 571.68 -1.59994 548.8 -1.59994C525.92 -1.59994 502.88 -1.59994 480 -1.59994C457.12 -1.59994 434.08 -1.59994 411.2 -1.59994C388.32 -1.59994 365.28 -1.59994 342.4 -1.59994C319.52 -1.59994 296.48 -1.59994 273.92 -1.59994C251.2 -1.59994 228.8 -1.59994 206.08 -1.59994C183.52 -1.59994 160.48 -1.59994 137.6 -1.59994C114.72 -1.59994 91.68 -1.59994 68.8 -1.59994C45.92 -1.59994 22.88 -1.59994 11.52 -1.59994H0V89.6001Z" fill="white"/>
</g>
<defs>
<clipPath id="clip0_56_15">
<rect width="1440" height="320" fill="white" transform="matrix(1 0 0 -1 0 320)"/>
</clipPath>
</defs>
</svg>
