<svg id="visual" viewBox="0 0 900 200" width="900" height="200" xmlns="http://www.w3.org/2000/svg" xmlns:xlink="http://www.w3.org/1999/xlink" version="1.1"><rect x="0" y="0" width="900" height="200" fill="#1d1d1d"></rect><path d="M0 30L7.2 34.5C14.3 39 28.7 48 43 52C57.3 56 71.7 55 86 65C100.3 75 114.7 96 128.8 106.5C143 117 157 117 171.2 111C185.3 105 199.7 93 214 78.3C228.3 63.7 242.7 46.3 257 41.8C271.3 37.3 285.7 45.7 300 53.7C314.3 61.7 328.7 69.3 343 65.5C357.3 61.7 371.7 46.3 386 37.2C400.3 28 414.7 25 428.8 26.2C443 27.3 457 32.7 471.2 39.5C485.3 46.3 499.7 54.7 514 61.3C528.3 68 542.7 73 557 65.5C571.3 58 585.7 38 600 47.2C614.3 56.3 628.7 94.7 643 106C657.3 117.3 671.7 101.7 686 85.5C700.3 69.3 714.7 52.7 728.8 42C743 31.3 757 26.7 771.2 29.5C785.3 32.3 799.7 42.7 814 50.8C828.3 59 842.7 65 857 70C871.3 75 885.7 79 892.8 81L900 83L900 201L892.8 201C885.7 201 871.3 201 857 201C842.7 201 828.3 201 814 201C799.7 201 785.3 201 771.2 201C757 201 743 201 728.8 201C714.7 201 700.3 201 686 201C671.7 201 657.3 201 643 201C628.7 201 614.3 201 600 201C585.7 201 571.3 201 557 201C542.7 201 528.3 201 514 201C499.7 201 485.3 201 471.2 201C457 201 443 201 428.8 201C414.7 201 400.3 201 386 201C371.7 201 357.3 201 343 201C328.7 201 314.3 201 300 201C285.7 201 271.3 201 257 201C242.7 201 228.3 201 214 201C199.7 201 185.3 201 171.2 201C157 201 143 201 128.8 201C114.7 201 100.3 201 86 201C71.7 201 57.3 201 43 201C28.7 201 14.3 201 7.2 201L0 201Z" fill="#c0c0c0"></path><path d="M0 82L7.2 81.5C14.3 81 28.7 80 43 86.7C57.3 93.3 71.7 107.7 86 109.5C100.3 111.3 114.7 100.7 128.8 102.2C143 103.7 157 117.3 171.2 122.5C185.3 127.7 199.7 124.3 214 123C228.3 121.7 242.7 122.3 257 121.3C271.3 120.3 285.7 117.7 300 121.8C314.3 126 328.7 137 343 140.5C357.3 144 371.7 140 386 141.3C400.3 142.7 414.7 149.3 428.8 145.5C443 141.7 457 127.3 471.2 127.7C485.3 128 499.7 143 514 144.8C528.3 146.7 542.7 135.3 557 132.5C571.3 129.7 585.7 135.3 600 125.8C614.3 116.3 628.7 91.7 643 86.2C657.3 80.7 671.7 94.3 686 106C700.3 117.7 714.7 127.3 728.8 126C743 124.7 757 112.3 771.2 115.3C785.3 118.3 799.7 136.7 814 135.8C828.3 135 842.7 115 857 111.7C871.3 108.3 885.7 121.7 892.8 128.3L900 135L900 201L892.8 201C885.7 201 871.3 201 857 201C842.7 201 828.3 201 814 201C799.7 201 785.3 201 771.2 201C757 201 743 201 728.8 201C714.7 201 700.3 201 686 201C671.7 201 657.3 201 643 201C628.7 201 614.3 201 600 201C585.7 201 571.3 201 557 201C542.7 201 528.3 201 514 201C499.7 201 485.3 201 471.2 201C457 201 443 201 428.8 201C414.7 201 400.3 201 386 201C371.7 201 357.3 201 343 201C328.7 201 314.3 201 300 201C285.7 201 271.3 201 257 201C242.7 201 228.3 201 214 201C199.7 201 185.3 201 171.2 201C157 201 143 201 128.8 201C114.7 201 100.3 201 86 201C71.7 201 57.3 201 43 201C28.7 201 14.3 201 7.2 201L0 201Z" fill="#dfdfdf"></path><path d="M0 144L7.2 140.2C14.3 136.3 28.7 128.7 43 134.5C57.3 140.3 71.7 159.7 86 158.3C100.3 157 114.7 135 128.8 134C143 133 157 153 171.2 164.2C185.3 175.3 199.7 177.7 214 170.3C228.3 163 242.7 146 257 140.2C271.3 134.3 285.7 139.7 300 139.3C314.3 139 328.7 133 343 127.2C357.3 121.3 371.7 115.7 386 123.7C400.3 131.7 414.7 153.3 428.8 156.8C443 160.3 457 145.7 471.2 145.5C485.3 145.3 499.7 159.7 514 160.3C528.3 161 542.7 148 557 144.3C571.3 140.7 585.7 146.3 600 145.5C614.3 144.7 628.7 137.3 643 138.5C657.3 139.7 671.7 149.3 686 158.7C700.3 168 714.7 177 728.8 169.3C743 161.7 757 137.3 771.2 131.8C785.3 126.3 799.7 139.7 814 143.7C828.3 147.7 842.7 142.3 857 138.7C871.3 135 885.7 133 892.8 132L900 131L900 201L892.8 201C885.7 201 871.3 201 857 201C842.7 201 828.3 201 814 201C799.7 201 785.3 201 771.2 201C757 201 743 201 728.8 201C714.7 201 700.3 201 686 201C671.7 201 657.3 201 643 201C628.7 201 614.3 201 600 201C585.7 201 571.3 201 557 201C542.7 201 528.3 201 514 201C499.7 201 485.3 201 471.2 201C457 201 443 201 428.8 201C414.7 201 400.3 201 386 201C371.7 201 357.3 201 343 201C328.7 201 314.3 201 300 201C285.7 201 271.3 201 257 201C242.7 201 228.3 201 214 201C199.7 201 185.3 201 171.2 201C157 201 143 201 128.8 201C114.7 201 100.3 201 86 201C71.7 201 57.3 201 43 201C28.7 201 14.3 201 7.2 201L0 201Z" fill="#ffffff"></path></svg>