<svg width="1440" height="320" viewBox="0 0 1440 320" fill="none" xmlns="http://www.w3.org/2000/svg">
<g clip-path="url(#clip0_56_15)">
<path d="M0 48L11.52 55.2C22.88 62.4 45.92 76.8 68.8 83.2C91.68 89.6 114.72 88 137.6 104C160.48 120 183.52 153.6 206.08 170.4C228.8 187.2 251.2 187.2 273.92 177.6C296.48 168 319.52 148.8 342.4 125.28C365.28 101.92 388.32 74.08 411.2 66.88C434.08 59.68 457.12 73.12 480 85.92C502.88 98.72 525.92 110.88 548.8 104.8C571.68 98.72 594.72 74.08 617.6 59.52C640.48 44.8 663.52 40 686.08 41.92C708.8 43.68 731.2 52.32 753.92 63.2C776.48 74.08 799.52 87.52 822.4 98.08C845.28 108.8 868.32 116.8 891.2 104.8C914.08 92.8 937.12 60.8 960 75.52C982.88 90.08 1005.92 151.52 1028.8 169.6C1051.68 187.68 1074.72 162.72 1097.6 136.8C1120.48 110.88 1143.52 84.32 1166.08 67.2C1188.8 50.08 1211.2 42.72 1233.92 47.2C1256.48 51.68 1279.52 68.32 1302.4 81.28C1325.28 94.4 1348.32 104 1371.2 112C1394.08 120 1417.12 126.4 1428.48 129.6L1440 132.8V321.6H1428.48C1417.12 321.6 1394.08 321.6 1371.2 321.6C1348.32 321.6 1325.28 321.6 1302.4 321.6C1279.52 321.6 1256.48 321.6 1233.92 321.6C1211.2 321.6 1188.8 321.6 1166.08 321.6C1143.52 321.6 1120.48 321.6 1097.6 321.6C1074.72 321.6 1051.68 321.6 1028.8 321.6C1005.92 321.6 982.88 321.6 960 321.6C937.12 321.6 914.08 321.6 891.2 321.6C868.32 321.6 845.28 321.6 822.4 321.6C799.52 321.6 776.48 321.6 753.92 321.6C731.2 321.6 708.8 321.6 686.08 321.6C663.52 321.6 640.48 321.6 617.6 321.6C594.72 321.6 571.68 321.6 548.8 321.6C525.92 321.6 502.88 321.6 480 321.6C457.12 321.6 434.08 321.6 411.2 321.6C388.32 321.6 365.28 321.6 342.4 321.6C319.52 321.6 296.48 321.6 273.92 321.6C251.2 321.6 228.8 321.6 206.08 321.6C183.52 321.6 160.48 321.6 137.6 321.6C114.72 321.6 91.68 321.6 68.8 321.6C45.92 321.6 22.88 321.6 11.52 321.6H0V48Z" fill="#C0C0C0"/>
<path d="M0 131.2L11.52 130.4C22.88 129.6 45.92 128 68.8 138.72C91.68 149.28 114.72 172.32 137.6 175.2C160.48 178.08 183.52 161.12 206.08 163.52C228.8 165.92 251.2 187.68 273.92 196C296.48 204.32 319.52 198.88 342.4 196.8C365.28 194.72 388.32 195.68 411.2 194.08C434.08 192.48 457.12 188.32 480 194.88C502.88 201.6 525.92 219.2 548.8 224.8C571.68 230.4 594.72 224 617.6 226.08C640.48 228.32 663.52 238.88 686.08 232.8C708.8 226.72 731.2 203.68 753.92 204.32C776.48 204.8 799.52 228.8 822.4 231.68C845.28 234.72 868.32 216.48 891.2 212C914.08 207.52 937.12 216.48 960 201.28C982.88 186.08 1005.92 146.72 1028.8 137.92C1051.68 129.12 1074.72 150.88 1097.6 169.6C1120.48 188.32 1143.52 203.68 1166.08 201.6C1188.8 199.52 1211.2 179.68 1233.92 184.48C1256.48 189.28 1279.52 218.72 1302.4 217.28C1325.28 216 1348.32 184 1371.2 178.72C1394.08 173.28 1417.12 194.72 1428.48 205.28L1440 216V321.6H1428.48C1417.12 321.6 1394.08 321.6 1371.2 321.6C1348.32 321.6 1325.28 321.6 1302.4 321.6C1279.52 321.6 1256.48 321.6 1233.92 321.6C1211.2 321.6 1188.8 321.6 1166.08 321.6C1143.52 321.6 1120.48 321.6 1097.6 321.6C1074.72 321.6 1051.68 321.6 1028.8 321.6C1005.92 321.6 982.88 321.6 960 321.6C937.12 321.6 914.08 321.6 891.2 321.6C868.32 321.6 845.28 321.6 822.4 321.6C799.52 321.6 776.48 321.6 753.92 321.6C731.2 321.6 708.8 321.6 686.08 321.6C663.52 321.6 640.48 321.6 617.6 321.6C594.72 321.6 571.68 321.6 548.8 321.6C525.92 321.6 502.88 321.6 480 321.6C457.12 321.6 434.08 321.6 411.2 321.6C388.32 321.6 365.28 321.6 342.4 321.6C319.52 321.6 296.48 321.6 273.92 321.6C251.2 321.6 228.8 321.6 206.08 321.6C183.52 321.6 160.48 321.6 137.6 321.6C114.72 321.6 91.68 321.6 68.8 321.6C45.92 321.6 22.88 321.6 11.52 321.6H0V131.2Z" fill="#DFDFDF"/>
<path d="M0 230.4L11.52 224.32C22.88 218.08 45.92 205.92 68.8 215.2C91.68 224.48 114.72 255.52 137.6 253.28C160.48 251.2 183.52 216 206.08 214.4C228.8 212.8 251.2 244.8 273.92 262.72C296.48 280.48 319.52 284.32 342.4 272.48C365.28 260.8 388.32 233.6 411.2 224.32C434.08 214.88 457.12 223.52 480 222.88C502.88 222.4 525.92 212.8 548.8 203.52C571.68 194.08 594.72 185.12 617.6 197.92C640.48 210.72 663.52 245.28 686.08 250.88C708.8 256.48 731.2 233.12 753.92 232.8C776.48 232.48 799.52 255.52 822.4 256.48C845.28 257.6 868.32 236.8 891.2 230.88C914.08 225.12 937.12 234.08 960 232.8C982.88 231.52 1005.92 219.68 1028.8 221.6C1051.68 223.52 1074.72 238.88 1097.6 253.92C1120.48 268.8 1143.52 283.2 1166.08 270.88C1188.8 258.72 1211.2 219.68 1233.92 210.88C1256.48 202.08 1279.52 223.52 1302.4 229.92C1325.28 236.32 1348.32 227.68 1371.2 221.92C1394.08 216 1417.12 212.8 1428.48 211.2L1440 209.6V321.6H1428.48C1417.12 321.6 1394.08 321.6 1371.2 321.6C1348.32 321.6 1325.28 321.6 1302.4 321.6C1279.52 321.6 1256.48 321.6 1233.92 321.6C1211.2 321.6 1188.8 321.6 1166.08 321.6C1143.52 321.6 1120.48 321.6 1097.6 321.6C1074.72 321.6 1051.68 321.6 1028.8 321.6C1005.92 321.6 982.88 321.6 960 321.6C937.12 321.6 914.08 321.6 891.2 321.6C868.32 321.6 845.28 321.6 822.4 321.6C799.52 321.6 776.48 321.6 753.92 321.6C731.2 321.6 708.8 321.6 686.08 321.6C663.52 321.6 640.48 321.6 617.6 321.6C594.72 321.6 571.68 321.6 548.8 321.6C525.92 321.6 502.88 321.6 480 321.6C457.12 321.6 434.08 321.6 411.2 321.6C388.32 321.6 365.28 321.6 342.4 321.6C319.52 321.6 296.48 321.6 273.92 321.6C251.2 321.6 228.8 321.6 206.08 321.6C183.52 321.6 160.48 321.6 137.6 321.6C114.72 321.6 91.68 321.6 68.8 321.6C45.92 321.6 22.88 321.6 11.52 321.6H0V230.4Z" fill="white"/>
</g>
<defs>
<clipPath id="clip0_56_15">
<rect width="1440" height="320" fill="white"/>
</clipPath>
</defs>
</svg>
