<svg width="1440" height="320" viewBox="0 0 1440 320" fill="none" xmlns="http://www.w3.org/2000/svg">
<g clip-path="url(#clip0_56_15)">
<path d="M0 48.3649L11.52 55.4343C22.88 62.5036 45.92 76.6423 68.8 82.9261C91.68 89.21 114.72 87.639 137.6 103.349C160.48 119.058 183.52 152.049 206.08 168.544C228.8 185.039 251.2 185.039 273.92 175.613C296.48 166.187 319.52 147.336 342.4 124.243C365.28 101.306 388.32 73.9716 411.2 66.9023C434.08 59.833 457.12 73.0291 480 85.5968C502.88 98.1645 525.92 110.104 548.8 104.134C571.68 98.1645 594.72 73.9716 617.6 59.6759C640.48 45.223 663.52 40.5101 686.08 42.3952C708.8 44.1233 731.2 52.6065 753.92 63.2891C776.48 73.9716 799.52 87.1678 822.4 97.5361C845.28 108.062 868.32 115.916 891.2 104.134C914.08 92.3519 937.12 60.9326 960 75.3855C982.88 89.6813 1005.92 150.006 1028.8 167.758C1051.68 185.51 1074.72 161.003 1097.6 135.553C1120.48 110.104 1143.52 84.0258 1166.08 67.2165C1188.8 50.4072 1211.2 43.1807 1233.92 47.5794C1256.48 51.9781 1279.52 68.3162 1302.4 81.041C1325.28 93.9229 1348.32 103.349 1371.2 111.204C1394.08 119.058 1417.12 125.342 1428.48 128.484L1440 131.626V317H1428.48C1417.12 317 1394.08 317 1371.2 317C1348.32 317 1325.28 317 1302.4 317C1279.52 317 1256.48 317 1233.92 317C1211.2 317 1188.8 317 1166.08 317C1143.52 317 1120.48 317 1097.6 317C1074.72 317 1051.68 317 1028.8 317C1005.92 317 982.88 317 960 317C937.12 317 914.08 317 891.2 317C868.32 317 845.28 317 822.4 317C799.52 317 776.48 317 753.92 317C731.2 317 708.8 317 686.08 317C663.52 317 640.48 317 617.6 317C594.72 317 571.68 317 548.8 317C525.92 317 502.88 317 480 317C457.12 317 434.08 317 411.2 317C388.32 317 365.28 317 342.4 317C319.52 317 296.48 317 273.92 317C251.2 317 228.8 317 206.08 317C183.52 317 160.48 317 137.6 317C114.72 317 91.68 317 68.8 317C45.92 317 22.88 317 11.52 317H0V48.3649Z" fill="#C0C0C0"/>
<path d="M0 131.2L11.52 130.4C22.88 129.6 45.92 128 68.8 138.72C91.68 149.28 114.72 172.32 137.6 175.2C160.48 178.08 183.52 161.12 206.08 163.52C228.8 165.92 251.2 187.68 273.92 196C296.48 204.32 319.52 198.88 342.4 196.8C365.28 194.72 388.32 195.68 411.2 194.08C434.08 192.48 457.12 188.32 480 194.88C502.88 201.6 525.92 219.2 548.8 224.8C571.68 230.4 594.72 224 617.6 226.08C640.48 228.32 663.52 238.88 686.08 232.8C708.8 226.72 731.2 203.68 753.92 204.32C776.48 204.8 799.52 228.8 822.4 231.68C845.28 234.72 868.32 216.48 891.2 212C914.08 207.52 937.12 216.48 960 201.28C982.88 186.08 1005.92 146.72 1028.8 137.92C1051.68 129.12 1074.72 150.88 1097.6 169.6C1120.48 188.32 1143.52 203.68 1166.08 201.6C1188.8 199.52 1211.2 179.68 1233.92 184.48C1256.48 189.28 1279.52 218.72 1302.4 217.28C1325.28 216 1348.32 184 1371.2 178.72C1394.08 173.28 1417.12 194.72 1428.48 205.28L1440 216V321.6H1428.48C1417.12 321.6 1394.08 321.6 1371.2 321.6C1348.32 321.6 1325.28 321.6 1302.4 321.6C1279.52 321.6 1256.48 321.6 1233.92 321.6C1211.2 321.6 1188.8 321.6 1166.08 321.6C1143.52 321.6 1120.48 321.6 1097.6 321.6C1074.72 321.6 1051.68 321.6 1028.8 321.6C1005.92 321.6 982.88 321.6 960 321.6C937.12 321.6 914.08 321.6 891.2 321.6C868.32 321.6 845.28 321.6 822.4 321.6C799.52 321.6 776.48 321.6 753.92 321.6C731.2 321.6 708.8 321.6 686.08 321.6C663.52 321.6 640.48 321.6 617.6 321.6C594.72 321.6 571.68 321.6 548.8 321.6C525.92 321.6 502.88 321.6 480 321.6C457.12 321.6 434.08 321.6 411.2 321.6C388.32 321.6 365.28 321.6 342.4 321.6C319.52 321.6 296.48 321.6 273.92 321.6C251.2 321.6 228.8 321.6 206.08 321.6C183.52 321.6 160.48 321.6 137.6 321.6C114.72 321.6 91.68 321.6 68.8 321.6C45.92 321.6 22.88 321.6 11.52 321.6H0V131.2Z" fill="#DFDFDF"/>
<path d="M0 230.4L11.52 224.32C22.88 218.08 45.92 205.92 68.8 215.2C91.68 224.48 114.72 255.52 137.6 253.28C160.48 251.2 183.52 216 206.08 214.4C228.8 212.8 251.2 244.8 273.92 262.72C296.48 280.48 319.52 284.32 342.4 272.48C365.28 260.8 388.32 233.6 411.2 224.32C434.08 214.88 457.12 223.52 480 222.88C502.88 222.4 525.92 212.8 548.8 203.52C571.68 194.08 594.72 185.12 617.6 197.92C640.48 210.72 663.52 245.28 686.08 250.88C708.8 256.48 731.2 233.12 753.92 232.8C776.48 232.48 799.52 255.52 822.4 256.48C845.28 257.6 868.32 236.8 891.2 230.88C914.08 225.12 937.12 234.08 960 232.8C982.88 231.52 1005.92 219.68 1028.8 221.6C1051.68 223.52 1074.72 238.88 1097.6 253.92C1120.48 268.8 1143.52 283.2 1166.08 270.88C1188.8 258.72 1211.2 219.68 1233.92 210.88C1256.48 202.08 1279.52 223.52 1302.4 229.92C1325.28 236.32 1348.32 227.68 1371.2 221.92C1394.08 216 1417.12 212.8 1428.48 211.2L1440 209.6V321.6H1428.48C1417.12 321.6 1394.08 321.6 1371.2 321.6C1348.32 321.6 1325.28 321.6 1302.4 321.6C1279.52 321.6 1256.48 321.6 1233.92 321.6C1211.2 321.6 1188.8 321.6 1166.08 321.6C1143.52 321.6 1120.48 321.6 1097.6 321.6C1074.72 321.6 1051.68 321.6 1028.8 321.6C1005.92 321.6 982.88 321.6 960 321.6C937.12 321.6 914.08 321.6 891.2 321.6C868.32 321.6 845.28 321.6 822.4 321.6C799.52 321.6 776.48 321.6 753.92 321.6C731.2 321.6 708.8 321.6 686.08 321.6C663.52 321.6 640.48 321.6 617.6 321.6C594.72 321.6 571.68 321.6 548.8 321.6C525.92 321.6 502.88 321.6 480 321.6C457.12 321.6 434.08 321.6 411.2 321.6C388.32 321.6 365.28 321.6 342.4 321.6C319.52 321.6 296.48 321.6 273.92 321.6C251.2 321.6 228.8 321.6 206.08 321.6C183.52 321.6 160.48 321.6 137.6 321.6C114.72 321.6 91.68 321.6 68.8 321.6C45.92 321.6 22.88 321.6 11.52 321.6H0V230.4Z" fill="white"/>
</g>
<defs>
<clipPath id="clip0_56_15">
<rect width="1440" height="320" fill="white"/>
</clipPath>
</defs>
</svg>
