<svg id="visual" viewBox="0 0 900 600" width="900" height="600" xmlns="http://www.w3.org/2000/svg" xmlns:xlink="http://www.w3.org/1999/xlink" version="1.1"><rect x="0" y="0" width="900" height="600" fill="#1d1d1d"></rect><path d="M0 290L7.2 287.8C14.3 285.7 28.7 281.3 43 265.3C57.3 249.3 71.7 221.7 86 216.8C100.3 212 114.7 230 128.8 234.8C143 239.7 157 231.3 171.2 225C185.3 218.7 199.7 214.3 214 215.3C228.3 216.3 242.7 222.7 257 230.3C271.3 238 285.7 247 300 246.7C314.3 246.3 328.7 236.7 343 227.3C357.3 218 371.7 209 386 204.5C400.3 200 414.7 200 428.8 200.2C443 200.3 457 200.7 471.2 214.2C485.3 227.7 499.7 254.3 514 266.3C528.3 278.3 542.7 275.7 557 266.7C571.3 257.7 585.7 242.3 600 232.3C614.3 222.3 628.7 217.7 643 224.7C657.3 231.7 671.7 250.3 686 262.8C700.3 275.3 714.7 281.7 728.8 276.7C743 271.7 757 255.3 771.2 242C785.3 228.7 799.7 218.3 814 219C828.3 219.7 842.7 231.3 857 237.2C871.3 243 885.7 243 892.8 243L900 243L900 601L892.8 601C885.7 601 871.3 601 857 601C842.7 601 828.3 601 814 601C799.7 601 785.3 601 771.2 601C757 601 743 601 728.8 601C714.7 601 700.3 601 686 601C671.7 601 657.3 601 643 601C628.7 601 614.3 601 600 601C585.7 601 571.3 601 557 601C542.7 601 528.3 601 514 601C499.7 601 485.3 601 471.2 601C457 601 443 601 428.8 601C414.7 601 400.3 601 386 601C371.7 601 357.3 601 343 601C328.7 601 314.3 601 300 601C285.7 601 271.3 601 257 601C242.7 601 228.3 601 214 601C199.7 601 185.3 601 171.2 601C157 601 143 601 128.8 601C114.7 601 100.3 601 86 601C71.7 601 57.3 601 43 601C28.7 601 14.3 601 7.2 601L0 601Z" fill="#c0c0c0"></path><path d="M0 404L7.2 388.5C14.3 373 28.7 342 43 332.8C57.3 323.7 71.7 336.3 86 341.2C100.3 346 114.7 343 128.8 347.2C143 351.3 157 362.7 171.2 361C185.3 359.3 199.7 344.7 214 344.5C228.3 344.3 242.7 358.7 257 366.5C271.3 374.3 285.7 375.7 300 365.7C314.3 355.7 328.7 334.3 343 341C357.3 347.7 371.7 382.3 386 390C400.3 397.7 414.7 378.3 428.8 360.3C443 342.3 457 325.7 471.2 332.2C485.3 338.7 499.7 368.3 514 369.3C528.3 370.3 542.7 342.7 557 342.5C571.3 342.3 585.7 369.7 600 375.8C614.3 382 628.7 367 643 357.7C657.3 348.3 671.7 344.7 686 338.5C700.3 332.3 714.7 323.7 728.8 324C743 324.3 757 333.7 771.2 339.7C785.3 345.7 799.7 348.3 814 360C828.3 371.7 842.7 392.3 857 398.8C871.3 405.3 885.7 397.7 892.8 393.8L900 390L900 601L892.8 601C885.7 601 871.3 601 857 601C842.7 601 828.3 601 814 601C799.7 601 785.3 601 771.2 601C757 601 743 601 728.8 601C714.7 601 700.3 601 686 601C671.7 601 657.3 601 643 601C628.7 601 614.3 601 600 601C585.7 601 571.3 601 557 601C542.7 601 528.3 601 514 601C499.7 601 485.3 601 471.2 601C457 601 443 601 428.8 601C414.7 601 400.3 601 386 601C371.7 601 357.3 601 343 601C328.7 601 314.3 601 300 601C285.7 601 271.3 601 257 601C242.7 601 228.3 601 214 601C199.7 601 185.3 601 171.2 601C157 601 143 601 128.8 601C114.7 601 100.3 601 86 601C71.7 601 57.3 601 43 601C28.7 601 14.3 601 7.2 601L0 601Z" fill="#dfdfdf"></path><path d="M0 459L7.2 464.8C14.3 470.7 28.7 482.3 43 477.8C57.3 473.3 71.7 452.7 86 444C100.3 435.3 114.7 438.7 128.8 453.5C143 468.3 157 494.7 171.2 491.3C185.3 488 199.7 455 214 440.3C228.3 425.7 242.7 429.3 257 441C271.3 452.7 285.7 472.3 300 473.5C314.3 474.7 328.7 457.3 343 445.7C357.3 434 371.7 428 386 441.3C400.3 454.7 414.7 487.3 428.8 504.7C443 522 457 524 471.2 521.7C485.3 519.3 499.7 512.7 514 513.3C528.3 514 542.7 522 557 526.7C571.3 531.3 585.7 532.7 600 525.2C614.3 517.7 628.7 501.3 643 488.3C657.3 475.3 671.7 465.7 686 458.5C700.3 451.3 714.7 446.7 728.8 455C743 463.3 757 484.7 771.2 495.3C785.3 506 799.7 506 814 507.3C828.3 508.7 842.7 511.3 857 507.7C871.3 504 885.7 494 892.8 489L900 484L900 601L892.8 601C885.7 601 871.3 601 857 601C842.7 601 828.3 601 814 601C799.7 601 785.3 601 771.2 601C757 601 743 601 728.8 601C714.7 601 700.3 601 686 601C671.7 601 657.3 601 643 601C628.7 601 614.3 601 600 601C585.7 601 571.3 601 557 601C542.7 601 528.3 601 514 601C499.7 601 485.3 601 471.2 601C457 601 443 601 428.8 601C414.7 601 400.3 601 386 601C371.7 601 357.3 601 343 601C328.7 601 314.3 601 300 601C285.7 601 271.3 601 257 601C242.7 601 228.3 601 214 601C199.7 601 185.3 601 171.2 601C157 601 143 601 128.8 601C114.7 601 100.3 601 86 601C71.7 601 57.3 601 43 601C28.7 601 14.3 601 7.2 601L0 601Z" fill="#ffffff"></path></svg>