<svg width="280" height="27" viewBox="0 0 280 27" fill="none" xmlns="http://www.w3.org/2000/svg">
<path d="M0.677047 0.799998H6.47305V10.844H15.365V0.799998H21.161V26H15.365V15.452H6.47305V26H0.677047V0.799998ZM39.4226 22.256H31.1426L30.0266 26H23.9786L32.7626 0.799998H37.8026L46.5866 26H40.5386L39.4226 22.256ZM38.0186 17.648L35.2826 8.576L32.5466 17.648H38.0186ZM52.8751 5.012H45.4591V0.799998H66.0871V5.012H58.6711V26H52.8751V5.012ZM68.8802 0.799998H86.1242V5.408H74.6762V10.484H84.9002V15.092H74.6762V21.392H86.1242V26H68.8802V0.799998ZM114.642 0.799998V26H108.918V12.68L104.202 26H100.098L95.3815 12.68V26H89.6575V0.799998H95.6335L102.15 19.772L108.666 0.799998H114.642Z" fill="#27BBC1"/>
<path d="M135.26 26.36C133.292 26.36 131.516 25.964 129.932 25.172C128.372 24.38 127.1 23.228 126.116 21.716L129.464 18.548C130.256 19.484 131.204 20.252 132.308 20.852C133.436 21.452 134.48 21.752 135.44 21.752C136.448 21.752 137.252 21.536 137.852 21.104C138.452 20.672 138.752 20.108 138.752 19.412C138.752 18.86 138.656 18.428 138.464 18.116C138.296 17.804 137.924 17.48 137.348 17.144C136.796 16.784 135.836 16.256 134.468 15.56C132.644 14.648 131.216 13.808 130.184 13.04C129.152 12.272 128.372 11.432 127.844 10.52C127.34 9.584 127.088 8.48 127.088 7.208C127.088 5.888 127.448 4.712 128.168 3.68C128.888 2.648 129.896 1.856 131.192 1.304C132.512 0.727998 134.024 0.439999 135.728 0.439999C137.624 0.439999 139.28 0.787998 140.696 1.484C142.136 2.18 143.192 3.152 143.864 4.4L140.228 7.136C139.052 5.744 137.648 5.048 136.016 5.048C135.008 5.048 134.228 5.24 133.676 5.624C133.148 5.984 132.884 6.5 132.884 7.172C132.884 7.604 133.04 8 133.352 8.36C133.664 8.72 134.204 9.128 134.972 9.584C135.764 10.016 136.94 10.592 138.5 11.312C140.012 12.008 141.2 12.716 142.064 13.436C142.928 14.132 143.54 14.936 143.9 15.848C144.284 16.736 144.476 17.816 144.476 19.088C144.476 20.552 144.092 21.836 143.324 22.94C142.58 24.02 141.512 24.86 140.12 25.46C138.728 26.06 137.108 26.36 135.26 26.36ZM157.926 26.36C155.526 26.36 153.462 25.844 151.734 24.812C150.006 23.78 148.686 22.292 147.774 20.348C146.862 18.404 146.406 16.088 146.406 13.4C146.406 10.712 146.862 8.396 147.774 6.452C148.686 4.508 150.006 3.02 151.734 1.988C153.462 0.955998 155.526 0.439999 157.926 0.439999C160.326 0.439999 162.39 0.955998 164.118 1.988C165.846 3.02 167.166 4.508 168.078 6.452C168.99 8.396 169.446 10.712 169.446 13.4C169.446 16.088 168.99 18.404 168.078 20.348C167.166 22.292 165.846 23.78 164.118 24.812C162.39 25.844 160.326 26.36 157.926 26.36ZM157.926 21.788C159.702 21.788 161.094 21.044 162.102 19.556C163.134 18.068 163.65 16.016 163.65 13.4C163.65 10.784 163.134 8.732 162.102 7.244C161.094 5.756 159.702 5.012 157.926 5.012C156.15 5.012 154.746 5.756 153.714 7.244C152.706 8.732 152.202 10.784 152.202 13.4C152.202 16.016 152.706 18.068 153.714 19.556C154.746 21.044 156.15 21.788 157.926 21.788ZM172.837 0.799998H178.633V21.392H190.405V26H172.837V0.799998ZM194.16 0.799998H199.956V26H194.16V0.799998ZM230.341 0.799998V26H224.617V12.68L219.901 26H215.797L211.081 12.68V26H205.357V0.799998H211.333L217.849 19.772L224.365 0.799998H230.341ZM248.602 22.256H240.322L239.206 26H233.158L241.942 0.799998H246.982L255.766 26H249.718L248.602 22.256ZM247.198 17.648L244.462 8.576L241.726 17.648H247.198ZM279.319 0.799998V26H274.063L264.343 10.556V26H258.583V0.799998H264.091L273.559 15.956V0.799998H279.319Z" fill="white"/>
</svg>
