<svg id="visual" viewBox="0 0 900 600" width="900" height="600" xmlns="http://www.w3.org/2000/svg" xmlns:xlink="http://www.w3.org/1999/xlink" version="1.1"><rect width="900" height="600" fill="#1d1d1d"></rect><g><g transform="translate(885 429)"><path d="M0 -13.1L12.5 -4.1L7.7 10.6L-7.7 10.6L-12.5 -4.1Z" fill="#27bbc1"></path></g><g transform="translate(671 505)"><path d="M0 -4L3.8 -1.2L2.4 3.2L-2.4 3.2L-3.8 -1.2Z" fill="#27bbc1"></path></g><g transform="translate(226 257)"><path d="M0 -5L4.8 -1.5L2.9 4L-2.9 4L-4.8 -1.5Z" fill="#27bbc1"></path></g><g transform="translate(146 269)"><path d="M0 -5L4.8 -1.5L2.9 4L-2.9 4L-4.8 -1.5Z" fill="#27bbc1"></path></g><g transform="translate(885 114)"><path d="M0 -11L10.5 -3.4L6.5 8.9L-6.5 8.9L-10.5 -3.4Z" fill="#27bbc1"></path></g><g transform="translate(374 291)"><path d="M0 -11L10.5 -3.4L6.5 8.9L-6.5 8.9L-10.5 -3.4Z" fill="#27bbc1"></path></g><g transform="translate(797 31)"><path d="M0 -10L9.5 -3.1L5.9 8.1L-5.9 8.1L-9.5 -3.1Z" fill="#27bbc1"></path></g><g transform="translate(835 274)"><path d="M0 -4L3.8 -1.2L2.4 3.2L-2.4 3.2L-3.8 -1.2Z" fill="#27bbc1"></path></g><g transform="translate(398 35)"><path d="M0 -3L2.9 -0.9L1.8 2.4L-1.8 2.4L-2.9 -0.9Z" fill="#27bbc1"></path></g><g transform="translate(137 167)"><path d="M0 -3L2.9 -0.9L1.8 2.4L-1.8 2.4L-2.9 -0.9Z" fill="#27bbc1"></path></g><g transform="translate(600 209)"><path d="M0 -1L1 -0.3L0.6 0.8L-0.6 0.8L-1 -0.3Z" fill="#27bbc1"></path></g><g transform="translate(464 363)"><path d="M0 -5L4.8 -1.5L2.9 4L-2.9 4L-4.8 -1.5Z" fill="#27bbc1"></path></g><g transform="translate(716 244)"><path d="M0 -10L9.5 -3.1L5.9 8.1L-5.9 8.1L-9.5 -3.1Z" fill="#27bbc1"></path></g><g transform="translate(761 583)"><path d="M0 -2L1.9 -0.6L1.2 1.6L-1.2 1.6L-1.9 -0.6Z" fill="#27bbc1"></path></g><g transform="translate(265 256)"><path d="M0 -8L7.6 -2.5L4.7 6.5L-4.7 6.5L-7.6 -2.5Z" fill="#27bbc1"></path></g><g transform="translate(692 536)"><path d="M0 -12L11.4 -3.7L7.1 9.7L-7.1 9.7L-11.4 -3.7Z" fill="#27bbc1"></path></g></g></svg>