<svg width="87" height="27" viewBox="0 0 87 27" fill="none" xmlns="http://www.w3.org/2000/svg">
<path d="M0.995891 16.424V14.408L19.4999 4.832V9.116L7.15189 15.416L19.4999 21.716V26L0.995891 16.424ZM23.7161 0.799998H29.5121V10.844H38.4041V0.799998H44.2001V26H38.4041V15.452H29.5121V26H23.7161V0.799998Z" fill="#27BBC1"/>
<path d="M56.5217 26.36C54.5537 26.36 52.7777 25.964 51.1937 25.172C49.6337 24.38 48.3617 23.228 47.3777 21.716L50.7257 18.548C51.5177 19.484 52.4657 20.252 53.5697 20.852C54.6977 21.452 55.7417 21.752 56.7017 21.752C57.7097 21.752 58.5137 21.536 59.1137 21.104C59.7137 20.672 60.0137 20.108 60.0137 19.412C60.0137 18.86 59.9177 18.428 59.7257 18.116C59.5577 17.804 59.1857 17.48 58.6097 17.144C58.0577 16.784 57.0977 16.256 55.7297 15.56C53.9057 14.648 52.4777 13.808 51.4457 13.04C50.4137 12.272 49.6337 11.432 49.1057 10.52C48.6017 9.584 48.3497 8.48 48.3497 7.208C48.3497 5.888 48.7097 4.712 49.4297 3.68C50.1497 2.648 51.1577 1.856 52.4537 1.304C53.7737 0.727998 55.2857 0.439999 56.9897 0.439999C58.8857 0.439999 60.5417 0.787998 61.9577 1.484C63.3977 2.18 64.4537 3.152 65.1257 4.4L61.4897 7.136C60.3137 5.744 58.9097 5.048 57.2777 5.048C56.2697 5.048 55.4897 5.24 54.9377 5.624C54.4097 5.984 54.1457 6.5 54.1457 7.172C54.1457 7.604 54.3017 8 54.6137 8.36C54.9257 8.72 55.4657 9.128 56.2337 9.584C57.0257 10.016 58.2017 10.592 59.7617 11.312C61.2737 12.008 62.4617 12.716 63.3257 13.436C64.1897 14.132 64.8017 14.936 65.1617 15.848C65.5457 16.736 65.7377 17.816 65.7377 19.088C65.7377 20.552 65.3537 21.836 64.5857 22.94C63.8417 24.02 62.7737 24.86 61.3817 25.46C59.9897 26.06 58.3697 26.36 56.5217 26.36ZM68.4959 21.716L80.8439 15.416L68.4959 9.116V4.832L86.9999 14.408V16.424L68.4959 26V21.716Z" fill="white"/>
</svg>
